<svg width="36" height="36" viewBox="0 0 36 36" fill="none" xmlns="http://www.w3.org/2000/svg">
<path fill-rule="evenodd" clip-rule="evenodd" d="M18 35.405C27.6125 35.405 35.405 27.6125 35.405 18C35.405 8.38751 27.6125 0.595041 18 0.595041C8.38751 0.595041 0.595041 8.38751 0.595041 18C0.595041 27.6125 8.38751 35.405 18 35.405ZM18 36C27.9411 36 36 27.9411 36 18C36 8.05888 27.9411 0 18 0C8.05888 0 0 8.05888 0 18C0 27.9411 8.05888 36 18 36Z" fill="#007AFF"/>
<path fill-rule="evenodd" clip-rule="evenodd" d="M17.8513 11.9008C14.4007 11.9008 11.6034 14.6981 11.6034 18.1488C11.6034 21.5994 14.4007 24.3967 17.8513 24.3967C21.3019 24.3967 24.0992 21.5994 24.0992 18.1488C24.0992 14.6981 21.3019 11.9008 17.8513 11.9008ZM9.81824 18.1488C9.81824 13.7122 13.4148 10.1157 17.8513 10.1157C22.2878 10.1157 25.8844 13.7122 25.8844 18.1488C25.8844 22.5853 22.2878 26.1818 17.8513 26.1818C13.4148 26.1818 9.81824 22.5853 9.81824 18.1488Z" fill="#007AFF"/>
<path fill-rule="evenodd" clip-rule="evenodd" d="M17.9263 5.82459C12.8674 5.78405 8.40329 8.39442 5.84812 12.3633C5.7147 12.5705 5.43854 12.6304 5.2313 12.4969C5.02406 12.3635 4.96422 12.0874 5.09764 11.8801C7.81117 7.66528 12.5553 4.88896 17.9334 4.93205C21.6651 4.96196 25.071 6.34459 27.6899 8.61113C27.8763 8.77243 27.8966 9.05426 27.7353 9.24063C27.574 9.427 27.2922 9.44733 27.1058 9.28604C24.641 7.15291 21.4378 5.85272 17.9263 5.82459Z" fill="url(#paint0_linear_1614_1023)"/>
<path fill-rule="evenodd" clip-rule="evenodd" d="M17.7488 30.1909C22.7633 30.1909 27.1688 27.5465 29.6715 23.5571C29.8024 23.3483 30.0779 23.2852 30.2867 23.4162C30.4955 23.5472 30.5585 23.8226 30.4276 24.0314C27.77 28.2676 23.086 31.0835 17.7488 31.0835C14.0458 31.0835 10.6556 29.7275 8.03979 27.4815C7.85278 27.321 7.83134 27.0392 7.9919 26.8522C8.15246 26.6652 8.43422 26.6438 8.62122 26.8043C11.0821 28.9172 14.268 30.1909 17.7488 30.1909Z" fill="url(#paint1_linear_1614_1023)"/>
<defs>
<linearGradient id="paint0_linear_1614_1023" x1="26.8046" y1="7.74291" x2="8.43921" y2="11.0935" gradientUnits="userSpaceOnUse">
<stop stop-color="#007AFF"/>
<stop offset="1" stop-color="#007AFF" stop-opacity="0"/>
</linearGradient>
<linearGradient id="paint1_linear_1614_1023" x1="8.92845" y1="28.3438" x2="27.1263" y2="24.9014" gradientUnits="userSpaceOnUse">
<stop stop-color="#007AFF"/>
<stop offset="1" stop-color="#007AFF" stop-opacity="0"/>
</linearGradient>
</defs>
</svg>
